<svg width="185" height="43" viewBox="0 0 185 43" fill="none" xmlns="http://www.w3.org/2000/svg">
<g clip-path="url(#clip0)">
<path fill-rule="evenodd" clip-rule="evenodd" d="M56.5909 14.267L51.8001 26.5176H58.43L56.6125 14.2171L56.5909 14.267ZM31.211 42.3898L50.863 0.871983H65.7215L74.0068 42.3898H60.9631L60.0017 36.8562H47.3468L44.4357 42.3898H31.211ZM80.183 42.3898L85.8758 0.871983H99.0195L93.3293 42.3898H80.183ZM167.603 14.2171L162.793 26.5176H169.42L167.603 14.2171ZM142.201 42.3898L161.856 0.871983H176.712L185 42.3898H171.954L170.995 36.8562H158.337L155.426 42.3898H142.201Z" fill="white"/>
<path fill-rule="evenodd" clip-rule="evenodd" d="M113.143 22.9763H129.614L140.9 42.1544H124.426L113.143 22.9763Z" fill="white"/>
<path fill-rule="evenodd" clip-rule="evenodd" d="M114.856 20.0308H131.88L146.666 0.933039H129.641L114.856 20.0308Z" fill="#F6822A"/>
<path fill-rule="evenodd" clip-rule="evenodd" d="M97.8339 42.2707H114.856L129.641 22.9402H112.617L97.8339 42.2707Z" fill="#F6822A"/>
<path fill-rule="evenodd" clip-rule="evenodd" d="M103.972 0.700281H119.86L130.746 20.0308H114.856L103.972 0.700281Z" fill="white"/>
<path fill-rule="evenodd" clip-rule="evenodd" d="M31.5999 2.35724L30.336 14.569C25.4915 7.71083 14.2631 12.4437 13.3813 20.9867C12.2609 31.8296 23.0675 34.3567 28.9479 27.9724L27.6814 40.2118C25.9263 41.0958 24.2098 41.783 22.5157 42.2458C20.8309 42.7113 19.1422 42.9579 17.4667 42.9939C15.3603 43.041 13.4518 42.8138 11.7324 42.3178C10.0129 41.8301 8.45686 41.0542 7.08011 40.0068C4.42492 38.0144 2.50508 35.4818 1.32251 32.4004C0.139929 29.308 -0.249223 25.8193 0.153702 21.9205C0.478579 18.7865 1.24771 15.9296 2.47349 13.3387C3.68875 10.7506 5.37228 8.39524 7.51599 6.26157C9.54249 4.22766 11.7494 2.69255 14.1375 1.65066C16.5164 0.617077 19.1125 0.0656281 21.9186 0.00466919C23.5949 -0.0313568 25.2395 0.140457 26.8356 0.536713C28.4402 0.930195 30.0228 1.54534 31.5999 2.35724Z" fill="white"/>
</g>
<defs>
<clipPath id="clip0">
<rect width="185" height="43" fill="white"/>
</clipPath>
</defs>
</svg>
