<svg width="30" height="31" viewBox="0 0 30 31" fill="none" xmlns="http://www.w3.org/2000/svg">
<path d="M28 17.9895V16.9895H26V17.9895H28ZM15 6.99731H16V4.99731H15V6.99731ZM17 5.99731L17.7069 6.70464L18.4147 5.99729L17.7069 5.28997L17 5.99731ZM26 17.9895C26 24.0583 21.0743 28.9817 15 28.9817V30.9817C22.1777 30.9817 28 25.1641 28 17.9895H26ZM15 28.9817C8.92567 28.9817 4 24.0583 4 17.9895H2C2 25.1641 7.82233 30.9817 15 30.9817V28.9817ZM4 17.9895C4 11.9207 8.92567 6.99731 15 6.99731V4.99731C7.82233 4.99731 2 10.8149 2 17.9895H4ZM12.2931 2.70734L16.2931 6.70466L17.7069 5.28997L13.7069 1.29266L12.2931 2.70734ZM16.2931 5.28999L12.2931 9.28755L13.7069 10.7022L17.7069 6.70464L16.2931 5.28999Z" fill="#4C4C4C"/>
<path d="M11 21.5455C11 23.0517 12.0989 24.2727 13.4545 24.2727H16.7273C18.0829 24.2727 19.1818 23.0517 19.1818 21.5455C19.1818 20.0392 18.0829 18.8182 16.7273 18.8182H13.4545C12.0989 18.8182 11 17.5971 11 16.0909C11 14.5847 12.0989 13.3636 13.4545 13.3636H16.7273C18.0829 13.3636 19.1818 14.5847 19.1818 16.0909M15.0909 12V13.3636M15.0909 25.6364V24.2727" stroke="#F6822A" stroke-width="2"/>
</svg>
