<svg width="30" height="36" viewBox="0 0 30 36" fill="none" xmlns="http://www.w3.org/2000/svg">
<path d="M1.00002 14.3999L0.416991 13.5875L1.52588e-05 13.8867V14.3999H1.00002ZM15 4.35339L15.583 3.54094C15.2346 3.29088 14.7655 3.29088 14.417 3.54094L15 4.35339ZM29 14.3999H30V13.8867L29.583 13.5875L29 14.3999ZM5.00002 20.4278V19.4278H4.00002V20.4278H5.00002ZM13 20.4278H14V19.4278H13V20.4278ZM2.00002 33.4883V14.3999H1.52588e-05V33.4883H2.00002ZM1.58304 15.2124L15.583 5.16585L14.417 3.54094L0.416991 13.5875L1.58304 15.2124ZM14.417 5.16585L28.417 15.2124L29.583 13.5875L15.583 3.54094L14.417 5.16585ZM28 14.3999V33.4883H30V14.3999H28ZM6.00002 33.4883V20.4278H4.00002V33.4883H6.00002ZM5.00002 21.4278H13V19.4278H5.00002V21.4278ZM12 20.4278V33.4883H14V20.4278H12ZM10 27.4557H13V25.4557H10V27.4557ZM22 19.4232V27.4604H24V19.4232H22ZM26 7.36735V12.3906H28V7.36735H26Z" fill="#4D4D4D"/>
<path d="M5.00002 33.4883V20.4279H13V33.4883M10 26.4558H13M23 19.4232V27.4604" stroke="#F6822A" stroke-width="2"/>
</svg>
