<svg width="30" height="30" viewBox="0 0 30 30" fill="none" xmlns="http://www.w3.org/2000/svg">
<path d="M25 17V15C25 13.8954 24.1046 13 23 13H3C1.89543 13 1 13.8954 1 15V27C1 28.1046 1.89543 29 3 29H23C24.1046 29 25 28.1046 25 27V25M25 17H17C14.7909 17 13 18.7909 13 21C13 23.2091 14.7909 25 17 25H25M25 17C27.2091 17 29 18.7909 29 21C29 23.2091 27.2091 25 25 25M7 13V7C7 3.68629 9.68629 1 13 1C16.3137 1 19 3.68629 19 7V13M24 21H26M20 21H22M16 21H18" stroke="black" stroke-width="2"/>
<path d="M25 16V17M25 17H17C14.7909 17 13 18.7909 13 21C13 23.2091 14.7909 25 17 25H25M25 17C27.2091 17 29 18.7909 29 21C29 23.2091 27.2091 25 25 25M25 25V26M24 21H26M20 21H22M16 21H18" stroke="#F6822A" stroke-width="2"/>
</svg>
