<svg width="70" height="75" viewBox="0 0 70 75" fill="none" xmlns="http://www.w3.org/2000/svg">
<path fill-rule="evenodd" clip-rule="evenodd" d="M57.6186 9.26251C57.3074 9.26251 56.9962 9.18751 56.7239 9.03751C49.2557 5.325 42.7989 3.75 35.0584 3.75C27.3568 3.75 20.0442 5.51251 13.3928 9.03751C12.4593 9.52501 11.2924 9.18751 10.7479 8.28751C10.2422 7.38751 10.5923 6.22501 11.5258 5.7375C18.7606 1.95 26.6956 0 35.0584 0C43.3434 0 50.5782 1.7625 58.5132 5.70001C59.4856 6.18751 59.8357 7.31251 59.33 8.21251C58.9799 8.88751 58.3187 9.26251 57.6186 9.26251ZM1.95713 28.9501C1.56816 28.9501 1.17919 28.8376 0.82912 28.6126C-0.065507 28.0126 -0.259991 26.8501 0.362358 25.9876C4.21315 20.7376 9.11415 16.6126 14.9487 13.7251C27.1623 7.65009 42.7988 7.6126 55.0513 13.6876C60.8858 16.5751 65.7868 20.6626 69.6376 25.8751C70.26 26.7001 70.0655 27.9001 69.1709 28.5001C68.2763 29.1001 67.0704 28.9126 66.4481 28.0501C62.9474 23.3251 58.5131 19.6126 53.2621 17.0251C42.0987 11.5126 27.8235 11.5126 16.699 17.0626C11.4091 19.6876 6.97482 23.4376 3.47411 28.1626C3.16293 28.6876 2.57948 28.9501 1.95713 28.9501ZM24.9063 73.6501C25.2564 74.0251 25.762 74.2126 26.2677 74.2126C26.7733 74.2126 27.279 74.0251 27.7069 73.6501C28.4459 72.9001 28.4459 71.7376 27.7069 70.9876C24.7118 68.0626 23.0003 66.2251 20.5109 61.9126C18.1382 57.8626 16.8935 52.8751 16.8935 47.4751C16.8935 38.4001 25.023 31.0125 35.0195 31.0125C45.0159 31.0125 53.1454 38.4001 53.1454 47.4751C53.1454 48.5251 54.0011 49.3501 55.0902 49.3501C56.1793 49.3501 57.0351 48.5251 57.0351 47.4751C57.0351 36.3376 47.1553 27.2625 35.0195 27.2625C22.8836 27.2625 13.0038 36.3376 13.0038 47.4751C13.0038 53.5126 14.4041 59.1376 17.088 63.7501C19.6941 68.2876 21.5223 70.3876 24.9063 73.6501ZM54.1567 67.2751C49.5279 67.2751 45.4438 66.1501 42.0986 63.9376C36.303 60.1501 32.8412 54.0001 32.8412 47.4751C32.8412 46.4251 33.6969 45.6001 34.786 45.6001C35.8751 45.6001 36.7309 46.4251 36.7309 47.4751C36.7309 52.7626 39.5314 57.7501 44.2769 60.8251C47.0385 62.6251 50.267 63.4876 54.1567 63.4876C55.0902 63.4876 56.6461 63.3751 58.2019 63.1126C59.2521 62.9251 60.2635 63.6001 60.4579 64.6501C60.6524 65.6626 59.9523 66.6376 58.8632 66.8251C56.6461 67.2376 54.7012 67.2751 54.1567 67.2751ZM45.8328 74.9249C45.9884 74.9624 46.1829 74.9999 46.3385 74.9999C47.1553 74.9999 47.9721 74.4374 48.1666 73.5749C48.4389 72.5999 47.8554 71.5499 46.8052 71.2874C41.3208 69.8249 37.7812 67.8749 34.086 64.3499C29.3794 59.8499 26.8123 53.8499 26.8123 47.4374C26.8123 43.4249 30.4297 40.1623 34.9028 40.1623C39.3759 40.1623 42.9933 43.4249 42.9933 47.4374C42.9933 53.5124 48.3611 58.4624 54.9736 58.4624C61.586 58.4624 66.9538 53.5124 66.9538 47.4374C66.9538 31.2373 52.562 18.0748 34.8639 18.0748C22.3002 18.0748 10.8257 24.8623 5.65237 35.3248C3.90201 38.8873 3.00739 42.9748 3.00739 47.4749C3.00739 52.5374 3.94091 57.4124 5.84685 62.3249C6.19693 63.2624 7.32493 63.7874 8.33625 63.4124C9.34757 63.0749 9.85323 61.9874 9.46426 61.0124C7.13045 55.0124 6.85817 50.3999 6.85817 47.4749C6.85817 43.5749 7.63611 40.0123 9.15309 36.9748C13.704 27.7873 23.8172 21.8623 34.8639 21.8623C50.4226 21.8623 63.0641 33.3373 63.0641 47.4749C63.0641 51.4874 59.4467 54.7499 54.9736 54.7499C50.5004 54.7499 46.883 51.4874 46.883 47.4749C46.883 41.3998 41.5153 36.4498 34.9028 36.4498C28.2903 36.4498 22.9226 41.3998 22.9226 47.4749C22.9226 54.8999 25.9176 61.8374 31.3632 67.0499C35.6029 71.0624 39.6482 73.2749 45.8328 74.9249Z" fill="#1963AC"/>
</svg>
