<?xml version="1.0" encoding="UTF-8" standalone="no"?>
<svg
   xmlns:dc="http://purl.org/dc/elements/1.1/"
   xmlns:cc="http://creativecommons.org/ns#"
   xmlns:rdf="http://www.w3.org/1999/02/22-rdf-syntax-ns#"
   xmlns:svg="http://www.w3.org/2000/svg"
   xmlns="http://www.w3.org/2000/svg"
   xmlns:sodipodi="http://sodipodi.sourceforge.net/DTD/sodipodi-0.dtd"
   xmlns:inkscape="http://www.inkscape.org/namespaces/inkscape"
   width="27"
   height="26"
   viewBox="0 0 27 26"
   fill="none"
   version="1.1"
   id="svg4"
   sodipodi:docname="sim.svg"
   inkscape:version="0.92.5 (2060ec1f9f, 2020-04-08)">
  <metadata
     id="metadata10">
    <rdf:RDF>
      <cc:Work
         rdf:about="">
        <dc:format>image/svg+xml</dc:format>
        <dc:type
           rdf:resource="http://purl.org/dc/dcmitype/StillImage" />
        <dc:title></dc:title>
      </cc:Work>
    </rdf:RDF>
  </metadata>
  <defs
     id="defs8" />
  <sodipodi:namedview
     pagecolor="#ffffff"
     bordercolor="#666666"
     borderopacity="1"
     objecttolerance="10"
     gridtolerance="10"
     guidetolerance="10"
     inkscape:pageopacity="0"
     inkscape:pageshadow="2"
     inkscape:window-width="1294"
     inkscape:window-height="704"
     id="namedview6"
     showgrid="false"
     inkscape:zoom="9.0769231"
     inkscape:cx="13.5"
     inkscape:cy="13"
     inkscape:window-x="72"
     inkscape:window-y="27"
     inkscape:window-maximized="1"
     inkscape:current-layer="svg4" />
  <path
     d="M1 1V0C0.447715 0 0 0.447715 0 1L1 1ZM25.3243 1H26.3243C26.3243 0.447715 25.8766 0 25.3243 0V1ZM25.3243 24.7209L24.9387 25.6436C25.2474 25.7726 25.6001 25.7387 25.8786 25.5533C26.157 25.3679 26.3243 25.0555 26.3243 24.7209H25.3243ZM21.2703 23.0266L21.6559 22.1039C21.4092 22.0008 21.1314 22.0008 20.8847 22.1039L21.2703 23.0266ZM17.2162 24.7209L16.8306 25.6436C17.0773 25.7467 17.3551 25.7467 17.6018 25.6436L17.2162 24.7209ZM13.1622 23.0266L13.5478 22.1039C13.301 22.0008 13.0233 22.0008 12.7765 22.1039L13.1622 23.0266ZM9.10811 24.7209L8.72249 25.6436C8.96923 25.7467 9.24699 25.7467 9.49373 25.6436L9.10811 24.7209ZM1 24.7209H0C0 25.0555 0.167292 25.3679 0.445751 25.5533C0.72421 25.7387 1.07695 25.7726 1.38562 25.6436L1 24.7209ZM5.05405 23.0266L5.43967 22.1039C5.19293 22.0008 4.91517 22.0008 4.66844 22.1039L5.05405 23.0266ZM1 2H25.3243V0H1V2ZM24.3243 1V24.7209H26.3243V1H24.3243ZM25.7099 23.7983L21.6559 22.1039L20.8847 23.9492L24.9387 25.6436L25.7099 23.7983ZM20.8847 22.1039L16.8306 23.7983L17.6018 25.6436L21.6559 23.9492L20.8847 22.1039ZM17.6018 23.7983L13.5478 22.1039L12.7765 23.9492L16.8306 25.6436L17.6018 23.7983ZM12.7765 22.1039L8.72249 23.7983L9.49373 25.6436L13.5478 23.9492L12.7765 22.1039ZM2 24.7209V1H0V24.7209H2ZM9.49373 23.7983L5.43967 22.1039L4.66844 23.9492L8.72249 25.6436L9.49373 23.7983ZM4.66844 22.1039L0.614383 23.7983L1.38562 25.6436L5.43967 23.9492L4.66844 22.1039ZM6.06757 8.77741H10.1216V6.77741H6.06757V8.77741ZM14.1757 8.77741H20.2568V6.77741H14.1757V8.77741ZM6.06757 13.8605H10.1216V11.8605H6.06757V13.8605ZM14.1757 13.8605H20.2568V11.8605H14.1757V13.8605ZM14.1757 18.9435H20.2568V16.9435H14.1757V18.9435Z"
     fill="#4D4D4D"
     id="path2" />
  <g
     style="fill:none"
     id="g71"
     transform="translate(6.4054,6.91695)">
    <path
       id="path60"
       d="M 0,1 H 4.05405 M 8.10811,1 H 14.1892 M 0,6.08306 h 4.05405 m 4.05406,0 H 14.1892 M 8.10811,11.1661 h 6.08109"
       inkscape:connector-curvature="0"
       style="stroke:#f6822a;stroke-width:2" />
  </g>
</svg>
