<svg width="30" height="28" viewBox="0 0 30 28" fill="none" xmlns="http://www.w3.org/2000/svg">
<path d="M25.2 11.6308V5.09744C25.2 4.06651 24.4034 3.23077 23.4207 3.23077L3.84828 3.23077C2.8656 3.23077 2.06897 4.06651 2.06897 5.09744L2.06897 23.7641C2.06897 24.795 2.86559 25.6308 3.84828 25.6308L23.4207 25.6308C24.4034 25.6308 25.2 24.795 25.2 23.7641V17.2308M26.856 10.6974H18.0828C16.1174 10.6974 14.5241 12.3689 14.5241 14.4308C14.5241 16.4926 16.1174 18.1641 18.0828 18.1641H26.856C26.9241 18.1641 26.9793 18.1062 26.9793 18.0347V10.8268C26.9793 10.7554 26.9241 10.6974 26.856 10.6974Z" stroke="#4D4D4D" stroke-width="2"/>
<path d="M18.0827 10.6974H26.856C26.9241 10.6974 26.9793 10.7554 26.9793 10.8268V18.0347C26.9793 18.1062 26.9241 18.1641 26.856 18.1641H18.0827C16.1174 18.1641 14.5241 16.4926 14.5241 14.4308C14.5241 12.3689 16.1174 10.6974 18.0827 10.6974Z" stroke="#F6822A" stroke-width="2"/>
</svg>
